<?xml version="1.0" encoding="utf-8"?>
<svg xmlns="http://www.w3.org/2000/svg"
	xmlns:xlink="http://www.w3.org/1999/xlink"
	width="19px" height="18px" viewBox="0 0 19 18">
<filter filterUnits="objectBoundingBox" x="0.00" y="0.00" width="95.00" height="94.74" id="filter0">
<feFlood flood-color="rgb(75,82,106)" result="coFloodOut1"/>
<feComposite in="coFloodOut1" in2="SourceAlpha" operator="in" result="coOverlay1"/>
<feBlend in="coOverlay1" in2="SourceGraphic" mode="normal" result="colorOverlay1"/>
</filter>
<path fillRule="evenodd" d="M 5.33 18.3C 7.06 17.49 10.05 16.07 10.05 16.07 10.05 16.07 12.99 17.45 14.87 18.33 14.26 18.04 16.43 19.57 16.23 17.45 16.04 15.41 15.73 12.14 15.73 12.14 15.73 12.14 17.88 9.75 19.22 8.26 18.66 8.88 20.76 7.18 18.8 6.81 16.83 6.44 13.28 6.18 13.28 6.18 13.28 6.18 11.87 2.92 10.83 1.12 11.32 1.96 10.28-0.73 9.25 1.08 8.21 2.89 6.7 6.19 6.7 6.19 6.7 6.19 3.27 6.46 1.29 6.84 2.06 6.69-0.52 6.76 0.79 8.21 2.13 9.7 4.36 12.17 4.36 12.17 4.36 12.17 4.06 15.45 3.88 17.49 3.93 16.96 3.2 19.31 5.33 18.3Z" fill="rgb(189,195,199)" filter="url(#filter0)"/></svg>